# xmcd
#
# Track frame offsets: 
#        300
#        18185
#        67799
#        84597
#        123154
#        157986
#        174276
#        188672
#        221923
#        245218
#
# Disc length: 3597 seconds
#
# Revision: 12
# Processed by: cddbd v1.5.2PL0 Copyright (c) Steve Scherf et al.
# Submitted via: ExactAudioCopy v1.0b1
#
DISCID=7c0e090a
DTITLE=Albert Collins and The Icebreakers - Live 1992-1993
DYEAR=1995
DGENRE=Texas Blues
TTITLE0=Iceman
TTITLE1=Lights are on but nobody's home
TTITLE2=If you love me (like you say)
TTITLE3=Put the shoe on the other foot
TTITLE4=Frosty
TTITLE5=Travelin' south
TTITLE6=Talkin woman
TTITLE7=My woman has a black cat bone
TTITLE8=I ain't drunk
TTITLE9=T-bone shuffle
EXTD=
EXTT0=
EXTT1=
EXTT2=
EXTT3=
EXTT4=
EXTT5=
EXTT6=
EXTT7=
EXTT8=
EXTT9=
PLAYORDER=
